#define t1_width 100
#define t1_height 46
static char t1_bits[] = {
 0x00,0x80,0x07,0x00,0x00,0x00,0x00,0x00,0x00,0x00,0x00,0x00,0x00,0x00,0x00,
 0x02,0x00,0x00,0x00,0x00,0x00,0x00,0x00,0x00,0x00,0x00,0x00,0x00,0xe2,0xc1,
 0x07,0x00,0x00,0x00,0x00,0x00,0x00,0x00,0x00,0x00,0x00,0x82,0x02,0x01,0x00,
 0x00,0x00,0x00,0x00,0x00,0x00,0x00,0x00,0x00,0x82,0x02,0x01,0x00,0x00,0x00,
 0x00,0x00,0x00,0x00,0x00,0x00,0x3c,0x82,0x02,0x01,0x00,0x00,0x00,0x00,0x00,
 0x00,0x00,0x00,0x00,0x43,0x81,0x04,0x01,0x00,0x00,0x00,0x00,0x00,0x00,0x00,
 0x00,0x80,0x80,0x41,0x04,0x01,0x00,0x00,0x00,0x00,0x00,0x00,0x00,0x00,0x40,
 0x00,0x41,0x84,0x00,0x00,0x00,0x00,0x00,0x00,0x00,0x00,0x00,0x40,0x80,0x40,
 0x88,0x00,0x00,0x00,0x00,0x00,0x00,0x38,0x00,0x00,0x40,0x80,0x40,0x88,0x00,
 0x00,0x00,0x00,0x00,0x00,0x20,0x00,0x01,0x40,0x80,0x40,0x90,0x00,0x00,0x00,
 0x00,0x00,0x00,0x10,0x80,0x00,0x20,0x80,0x20,0x90,0x00,0x00,0x00,0x00,0x00,
 0x00,0x10,0x80,0x00,0x40,0xc0,0x20,0x50,0x00,0x00,0x00,0x00,0x00,0x00,0xd0,
 0xc1,0x0f,0x80,0xb0,0x22,0x60,0x00,0x00,0x00,0x00,0x00,0x00,0x30,0x86,0x00,
 0x00,0x8f,0xf9,0x61,0x00,0x00,0x00,0x00,0x00,0xfc,0x10,0x84,0x00,0x00,0x00,
 0x00,0x00,0x00,0x00,0x00,0x00,0x00,0x00,0x08,0x84,0x00,0x00,0x00,0x00,0x00,
 0x00,0x00,0x00,0x00,0x00,0x00,0x08,0x42,0x00,0x00,0x00,0x00,0x00,0x00,0x00,
 0x00,0x00,0x00,0x00,0x18,0x43,0x0c,0x00,0x00,0x00,0x00,0x00,0x00,0x00,0xf0,
 0x00,0x00,0xe6,0x80,0x03,0x00,0x00,0x00,0x00,0x00,0xfe,0x03,0x0c,0x01,0x00,
 0x00,0x00,0x00,0x00,0x00,0x00,0x00,0x00,0x00,0x00,0x02,0x02,0x00,0x00,0x00,
 0x00,0x00,0x00,0x00,0x00,0x00,0x00,0x00,0x01,0x04,0x00,0x00,0x00,0x00,0x00,
 0x00,0x00,0x00,0x00,0x00,0x80,0x00,0x04,0x00,0x00,0x00,0x00,0x00,0x00,0x00,
 0x00,0x00,0xfe,0x83,0xff,0x03,0x00,0x00,0x00,0x00,0xff,0xff,0xff,0xff,0x03,
 0x00,0x80,0x00,0x00,0x00,0x00,0x00,0x00,0xff,0xff,0xff,0xff,0x03,0x00,0x80,
 0x00,0x00,0x00,0x00,0x00,0x00,0x00,0x00,0x00,0x00,0x00,0x00,0x80,0x00,0x01,
 0x00,0x00,0x00,0x00,0x00,0x00,0x00,0x00,0x00,0x00,0x00,0x83,0x00,0x00,0x00,
 0x00,0x00,0x00,0x00,0x00,0x00,0x00,0x00,0x00,0x7c,0x00,0x00,0x00,0x00,0x00,
 0x00,0x80,0x07,0x00,0x00,0x00,0x00,0x00,0x00,0x00,0x00,0x00,0x00,0x00,0x00,
 0x02,0x00,0x00,0x00,0x00,0x00,0x00,0x00,0x00,0x00,0x00,0x00,0x00,0x02,0x02,
 0x00,0x00,0x00,0x00,0x00,0x00,0x00,0x00,0x00,0x00,0x00,0x02,0x02,0x00,0x00,
 0x00,0x00,0x00,0x00,0x00,0x00,0x00,0x00,0x00,0x02,0x02,0x00,0x00,0x00,0x00,
 0x00,0x00,0x00,0x00,0x00,0x00,0x3c,0x82,0xff,0x00,0x00,0x00,0x00,0x00,0x00,
 0x00,0x00,0x00,0x00,0x43,0x01,0x01,0x00,0x00,0x00,0x00,0x00,0x00,0x00,0x00,
 0x00,0x80,0x80,0x01,0x01,0x00,0x00,0x00,0x00,0x00,0x00,0x00,0x00,0x00,0x40,
 0x00,0x01,0x01,0x00,0x00,0x00,0x00,0x00,0x00,0x00,0x00,0x00,0x40,0x80,0x00,
 0x01,0x00,0x00,0x00,0x00,0x00,0x00,0x00,0x00,0x00,0x40,0x80,0x00,0x01,0x00,
 0x00,0x00,0x00,0x00,0x00,0x00,0x00,0x00,0x40,0x80,0x80,0x00,0x00,0x00,0x00,
 0x00,0x00,0x00,0x00,0x00,0x00,0x20,0x80,0x80,0x00,0x00,0x00,0x00,0x00,0x00,
 0x00,0x00,0x00,0x00,0x40,0xc0,0x80,0x80,0x00,0x00,0x00,0x00,0x00,0x00,0x00,
 0x00,0x00,0x80,0xb0,0x02,0x61,0x00,0x00,0x00,0x00,0x00,0x00,0x00,0x00,0x00,
 0x00,0x8f,0x01,0x1e,0x00,0x00,0x00,0x00,0x00,0x00,0x00,0x00,0x00};
